HIERARCHY
ROOT Hips
{
	OFFSET 0.00000 0.00000 0.00000
	CHANNELS 6 Xposition Yposition Zposition Zrotation Yrotation Xrotation 
	JOINT LHipJoint
	{
		OFFSET 0 0 0
		CHANNELS 3 Zrotation Yrotation Xrotation
		JOINT LeftUpLeg
		{
			OFFSET 1.48416 -1.82041 0.59464
			CHANNELS 3 Zrotation Yrotation Xrotation
			JOINT LeftLeg
			{
				OFFSET 2.43280 -6.68407 0.00000
				CHANNELS 3 Zrotation Yrotation Xrotation
				JOINT LeftFoot
				{
					OFFSET 2.68325 -7.37216 0.00000
					CHANNELS 3 Zrotation Yrotation Xrotation
					JOINT LeftToeBase
					{
						OFFSET 0.15365 -0.42214 1.91990
						CHANNELS 3 Zrotation Yrotation Xrotation
						End Site
						{
							OFFSET 0.00000 -0.00000 0.99320
						}
					}
				}
			}
		}
	}
	JOINT RHipJoint
	{
		OFFSET 0 0 0
		CHANNELS 3 Zrotation Yrotation Xrotation
		JOINT RightUpLeg
		{
			OFFSET -1.70852 -1.82040 0.59464
			CHANNELS 3 Zrotation Yrotation Xrotation
			JOINT RightLeg
			{
				OFFSET -2.50396 -6.87957 0.00000
				CHANNELS 3 Zrotation Yrotation Xrotation
				JOINT RightFoot
				{
					OFFSET -2.67204 -7.34139 0.00000
					CHANNELS 3 Zrotation Yrotation Xrotation
					JOINT RightToeBase
					{
						OFFSET -0.17346 -0.47657 2.02009
						CHANNELS 3 Zrotation Yrotation Xrotation
						End Site
						{
							OFFSET -0.00000 -0.00000 1.04609
						}
					}
				}
			}
		}
	}
	JOINT LowerBack
	{
		OFFSET 0 0 0
		CHANNELS 3 Zrotation Yrotation Xrotation
		JOINT Spine
		{
			OFFSET -0.01022 1.99636 -0.30653
			CHANNELS 3 Zrotation Yrotation Xrotation
			JOINT Spine1
			{
				OFFSET -0.01683 2.01212 0.04808
				CHANNELS 3 Zrotation Yrotation Xrotation
				JOINT Neck
				{
					OFFSET 0 0 0
					CHANNELS 3 Zrotation Yrotation Xrotation
					JOINT Neck1
					{
						OFFSET -0.03080 1.91178 0.03911
						CHANNELS 3 Zrotation Yrotation Xrotation
						JOINT Head
						{
							OFFSET 0.10605 1.89839 -0.23433
							CHANNELS 3 Zrotation Yrotation Xrotation
							End Site
							{
								OFFSET 0.03474 1.92469 -0.08609
							}
						}
					}
				}
				JOINT LeftShoulder
				{
					OFFSET 0 0 0
					CHANNELS 3 Zrotation Yrotation Xrotation
					JOINT LeftArm
					{
						OFFSET 3.78977 1.27972 -0.24661
						CHANNELS 3 Zrotation Yrotation Xrotation
						JOINT LeftForeArm
						{
							OFFSET 5.64147 -0.00000 -0.00000
							CHANNELS 3 Zrotation Yrotation Xrotation
							JOINT LeftHand
							{
								OFFSET 2.86444 -0.00000 -0.00000
								CHANNELS 3 Zrotation Yrotation Xrotation
								JOINT LeftFingerBase
								{
									OFFSET 0 0 0
									CHANNELS 3 Zrotation Yrotation Xrotation
									JOINT LeftHandIndex1
									{
										OFFSET 0.72212 -0.00000 -0.00000
										CHANNELS 3 Zrotation Yrotation Xrotation
										End Site
										{
											OFFSET 0.58219 -0.00000 -0.00000
										}
									}
								}
								JOINT LThumb
								{
									OFFSET 0 0 0
									CHANNELS 3 Zrotation Yrotation Xrotation
									End Site
									{
										OFFSET 0.59108 -0.00000 0.59108
									}
								}
							}
						}
					}
				}
				JOINT RightShoulder
				{
					OFFSET 0 0 0
					CHANNELS 3 Zrotation Yrotation Xrotation
					JOINT RightArm
					{
						OFFSET -3.41176 1.18605 -0.57927
						CHANNELS 3 Zrotation Yrotation Xrotation
						JOINT RightForeArm
						{
							OFFSET -5.44729 -0.00000 -0.00000
							CHANNELS 3 Zrotation Yrotation Xrotation
							JOINT RightHand
							{
								OFFSET -3.08821 -0.00000 -0.00000
								CHANNELS 3 Zrotation Yrotation Xrotation
								JOINT RightFingerBase
								{
									OFFSET 0 0 0
									CHANNELS 3 Zrotation Yrotation Xrotation
									JOINT RightHandIndex1
									{
										OFFSET -0.82105 -0.00000 -0.00000
										CHANNELS 3 Zrotation Yrotation Xrotation
										End Site
										{
											OFFSET -0.66195 -0.00000 -0.00000
										}
									}
								}
								JOINT RThumb
								{
									OFFSET 0 0 0
									CHANNELS 3 Zrotation Yrotation Xrotation
									End Site
									{
										OFFSET -0.67206 -0.00000 0.67206
									}
								}
							}
						}
					}
				}
			}
		}
	}
}
MOTION
Frames: 16
Frame Time: .0083333
3.1294 17.6906 0.5761 0 0 0 0 0 0 -21 0 0 0 0 0 0 0 0 0 0 0 0 0 0 21 0 0 0 0 0 0 0 0 0 0 0 0 0 0 0 0 0 0 0 0 0 0 -16 0 0 21 0 0 11 0 0 0 -8 0 0 0 0 0 0 0 0 0 0 0 0 0 0 0 0 0 0 0 0 8 0 0 0 0 0 0 0 0 0 0 0 0 0 0 0 0 0
3.1294 17.6906 0.5761 -68.7451 88.7134 -69.7364 0.0000 0.0000 0.0000 -14.1609 1.9634 3.0385 0.1862 2.7788 7.6635 0.3688 -2.9176 -10.8387 0.1226 -2.2575 -6.2178 0.0000 0.0000 0.0000 20.7509 -0.1209 1.2970 -0.5440 -4.7255 13.1273 -0.6925 4.1566 -14.8637 -0.1807 2.7383 -7.5509 3.5527 -0.4199 5.3753 -1.3246 -0.3644 -1.4789 -3.3388 -0.2995 -4.5845 -4.7223 -5.6582 -3.6455 9.4056 -7.7444 4.1903 3.6704 -3.6745 2.6446 0.0000 0.0000 0.0000 -88.2545 1.9902 -0.3843 8.4825 -14.3319 -1.0684 -0.0000 0.0000 -15.9001 12.7920 10.4262 2.3529 -7.1250 0.0000 -0.0000 -12.5100 40.3500 1.4603 0.0000 0.0000 0.0000 90.7014 -4.6873 -1.5592 -10.3295 17.2533 -1.5713 0.0000 0.0000 28.2698 -0.8730 16.2612 -0.2445 7.1250 -0.0000 -0.0000 17.8088 -14.2303 13.5689
3.1288 17.6840 0.5753 -68.1572 88.7079 -69.1393 0.0000 0.0000 0.0000 -14.1710 1.8470 2.6732 0.2200 3.0194 8.3328 0.3869 -3.0905 -11.0936 0.1218 -2.2494 -6.1955 0.0000 0.0000 0.0000 20.7655 -0.1265 1.4776 -0.5227 -4.6332 12.8653 -0.6879 4.1180 -14.8154 -0.2035 2.9045 -8.0130 3.5518 -0.4206 5.3464 -1.3159 -0.3659 -1.4866 -3.3291 -0.3001 -4.5762 -4.7536 -5.6454 -3.6420 9.4283 -7.7321 4.2673 3.6852 -3.6668 2.6720 0.0000 0.0000 0.0000 -88.1426 1.8682 -0.1454 8.3850 -14.1750 -1.0444 -0.0000 0.0000 -15.9037 12.9082 10.2743 2.3408 -7.1250 0.0000 -0.0000 -12.3763 40.2082 1.4882 0.0000 0.0000 0.0000 90.8200 -4.6566 -1.1509 -10.3577 17.2971 -1.5796 0.0000 0.0000 28.2958 -0.9378 16.3641 -0.2642 7.1250 -0.0000 -0.0000 17.7595 -14.1300 13.5673
3.1279 17.6797 0.5758 -68.5091 88.6732 -69.5235 0.0000 0.0000 0.0000 -14.1259 1.7958 2.5297 0.2370 3.1330 8.6492 0.3951 -3.1872 -11.2064 0.1250 -2.2788 -6.2769 0.0000 0.0000 0.0000 20.8181 -0.1370 1.6060 -0.5117 -4.5851 12.7288 -0.6856 4.0756 -14.7929 -0.2217 3.0310 -8.3652 3.5706 -0.4259 5.3635 -1.3014 -0.3705 -1.4834 -3.3242 -0.3028 -4.5830 -4.7461 -5.6366 -3.5913 9.4272 -7.7220 4.2742 3.6850 -3.6628 2.6636 0.0000 0.0000 0.0000 -87.9816 1.8102 0.6200 8.4020 -14.2023 -1.0485 -0.0000 0.0000 -16.3101 12.8842 10.6195 2.4138 -7.1250 0.0000 -0.0000 -12.4742 40.5507 1.3932 0.0000 0.0000 0.0000 90.9278 -4.5855 -0.7330 -10.3241 17.2450 -1.5697 0.0000 0.0000 28.2753 -1.1350 16.5630 -0.3236 7.1250 -0.0000 -0.0000 17.6184 -13.9331 13.5257
3.1265 17.6786 0.5768 -69.0857 88.6408 -70.1065 0.0000 0.0000 0.0000 -14.0797 1.7326 2.3641 0.2545 3.2458 8.9638 0.4034 -3.2941 -11.3192 0.1226 -2.2570 -6.2166 0.0000 0.0000 0.0000 20.8726 -0.0933 1.7047 -0.5002 -4.5340 12.5841 -0.6837 3.9687 -14.7805 -0.2193 3.0147 -8.3196 3.5791 -0.4378 5.3611 -1.2791 -0.3850 -1.4854 -3.3043 -0.3100 -4.5848 -4.7133 -5.6155 -3.5627 9.3890 -7.6950 4.2911 3.6673 -3.6502 2.6578 -0.0000 -0.0000 0.0000 -87.8332 1.7665 1.4131 8.4534 -14.2852 -1.0612 -0.0000 0.0000 -16.5985 12.8755 10.9889 2.4949 -7.1250 0.0000 -0.0000 -12.5664 40.9185 1.2878 -0.0000 -0.0000 0.0000 91.0005 -4.5406 0.0453 -10.3172 17.2343 -1.5676 0.0000 0.0000 28.0162 -1.3135 16.5324 -0.3738 7.1250 -0.0000 -0.0000 17.5059 -13.9554 13.4215
3.1259 17.6779 0.5756 -70.0859 88.5468 -71.1177 0.0000 0.0000 0.0000 -13.9708 1.7154 2.2988 0.2626 3.2969 9.1065 0.4100 -3.2936 -11.4140 0.1333 -2.3532 -6.4829 0.0000 0.0000 0.0000 20.9779 -0.1069 1.7509 -0.4946 -4.5092 12.5139 -0.6834 3.9642 -14.7778 -0.2109 2.9567 -8.1583 3.6949 -0.4372 5.3690 -1.2458 -0.3745 -1.4813 -3.3360 -0.3075 -4.5850 -4.7085 -5.6078 -3.6312 9.3693 -7.6898 4.4012 3.6581 -3.6442 2.7060 -0.0000 -0.0000 0.0000 -87.7427 1.7081 1.9624 8.4375 -14.2595 -1.0573 -0.0000 0.0000 -16.7318 12.9796 10.8820 2.4916 -7.1250 0.0000 -0.0000 -12.4518 40.8209 1.3061 -0.0000 -0.0000 0.0000 91.0743 -4.5347 0.8289 -10.3702 17.3166 -1.5834 0.0000 0.0000 27.7594 -1.4540 16.4250 -0.4112 7.1250 -0.0000 -0.0000 17.4232 -14.0524 13.3137
3.1248 17.6773 0.5753 -70.0703 88.5110 -71.1176 0.0000 0.0000 0.0000 -13.9369 1.7201 2.2815 0.2665 3.3209 9.1734 0.4131 -3.3504 -11.4543 0.1182 -2.2167 -6.1050 0.0000 0.0000 0.0000 21.0241 -0.0531 1.8136 -0.4917 -4.4962 12.4770 -0.6888 3.9170 -14.8419 -0.2017 2.8916 -7.9772 3.7340 -0.4272 5.3919 -1.2409 -0.3572 -1.4871 -3.3546 -0.3005 -4.6029 -4.6584 -5.6011 -3.6119 9.3539 -7.6851 4.4391 3.6438 -3.6409 2.7113 0.0000 0.0000 0.0000 -87.6216 1.6936 2.5537 8.4170 -14.2265 -1.0522 -0.0000 0.0000 -16.9750 13.0823 10.6911 2.4685 -7.1250 0.0000 -0.0000 -12.3196 40.6393 1.3479 0.0000 0.0000 0.0000 91.1601 -4.5369 1.5567 -10.4168 17.3889 -1.5973 0.0000 0.0000 27.4971 -1.6783 16.4810 -0.4763 7.1250 -0.0000 -0.0000 17.2748 -13.9900 13.2128
3.1246 17.6779 0.5743 -69.0788 88.5337 -70.1362 0.0000 0.0000 0.0000 -13.9771 1.7331 2.2704 0.2700 3.3427 9.2345 0.4149 -3.4274 -11.4757 0.1078 -2.1173 -5.8300 0.0000 0.0000 0.0000 20.9954 -0.0384 1.8458 -0.4889 -4.4833 12.4405 -0.6880 3.8611 -14.8376 -0.2167 2.9969 -8.2702 3.7058 -0.4276 5.4013 -1.2431 -0.3594 -1.4878 -3.3407 -0.3010 -4.6090 -4.6547 -5.5701 -3.5918 9.3728 -7.6463 4.4629 3.6522 -3.6209 2.7134 -0.0000 0.0000 0.0000 -87.4993 1.6364 3.2599 8.3866 -14.1775 -1.0448 -0.0000 0.0000 -17.2748 13.2159 10.5578 2.4639 -7.1250 0.0000 -0.0000 -12.1747 40.5176 1.3687 -0.0000 0.0000 0.0000 91.2263 -4.4967 2.1746 -10.4673 17.4672 -1.6124 0.0000 0.0000 27.3871 -1.7148 16.5522 -0.4887 7.1250 -0.0000 -0.0000 17.2466 -13.9206 13.2157
3.1256 17.6782 0.5725 -69.6453 88.5049 -70.7003 0.0000 0.0000 0.0000 -13.9473 1.7312 2.2762 0.2696 3.3399 9.2265 0.4151 -3.3984 -11.4796 0.1214 -2.2460 -6.1859 0.0000 0.0000 0.0000 21.0165 -0.0856 1.8344 -0.4884 -4.4809 12.4338 -0.6843 3.8731 -14.7954 -0.2312 3.0947 -8.5426 3.7658 -0.4461 5.3704 -1.2346 -0.3808 -1.4827 -3.3637 -0.3127 -4.5885 -4.6567 -5.5347 -3.5920 9.3963 -7.6025 4.5066 3.6631 -3.5974 2.7262 0.0000 0.0000 0.0000 -87.4026 1.5435 3.7028 8.3682 -14.1479 -1.0403 -0.0000 0.0000 -17.3606 13.3405 10.5707 2.4909 -7.1250 0.0000 -0.0000 -12.0702 40.5412 1.3494 0.0000 0.0000 0.0000 91.2738 -4.4950 2.9548 -10.5463 17.5896 -1.6362 0.0000 0.0000 27.1179 -1.6699 16.5607 -0.4761 7.1250 -0.0000 -0.0000 17.2748 -13.9142 13.2420
3.1260 17.6781 0.5696 -69.7915 88.5099 -70.8283 0.0000 0.0000 0.0000 -13.9608 1.7294 2.2796 0.2661 3.3187 9.1673 0.4125 -3.3075 -11.4481 0.1451 -2.4545 -6.7636 0.0000 0.0000 0.0000 20.9890 -0.1649 1.7718 -0.4901 -4.4886 12.4554 -0.6790 3.9587 -14.7290 -0.2022 2.8954 -7.9877 3.8005 -0.4500 5.3451 -1.2411 -0.3844 -1.4998 -3.3899 -0.3159 -4.5928 -4.6380 -5.5187 -3.5876 9.3991 -7.5855 4.5625 3.6615 -3.5874 2.7421 0.0000 0.0000 0.0000 -87.3463 1.4972 3.9336 8.3870 -14.1783 -1.0449 -0.0000 0.0000 -17.2260 13.4503 10.8664 2.5815 -7.1250 0.0000 -0.0000 -12.0415 40.8469 1.2538 0.0000 0.0000 0.0000 91.3449 -4.5013 3.4764 -10.5876 17.6534 -1.6487 0.0000 0.0000 27.0030 -1.7890 16.6872 -0.5139 7.1250 -0.0000 -0.0000 17.1897 -13.7885 13.2183
3.1260 17.6785 0.5681 -69.5196 88.5436 -70.5584 0.0000 0.0000 0.0000 -14.0019 1.7319 2.2993 0.2642 3.3069 9.1344 0.4092 -3.3051 -11.4019 0.1455 -2.4580 -6.7732 0.0000 0.0000 0.0000 20.9448 -0.1491 1.7813 -0.4906 -4.4911 12.4624 -0.6824 4.0195 -14.7622 -0.1356 2.3732 -6.5382 3.7649 -0.4434 5.3554 -1.2342 -0.3774 -1.5105 -3.3632 -0.3118 -4.6086 -4.6555 -5.5174 -3.5722 9.3905 -7.5840 4.5783 3.6623 -3.5873 2.7449 0.0000 -0.0000 0.0000 -87.2786 1.4797 4.5784 8.3773 -14.1626 -1.0425 -0.0000 0.0000 -17.4995 13.6535 10.8643 2.6215 -7.1250 0.0000 -0.0000 -11.8651 40.8627 1.2301 0.0000 -0.0000 0.0000 91.3751 -4.5006 3.9886 -10.6228 17.7077 -1.6594 0.0000 0.0000 26.8171 -1.9693 16.7103 -0.5664 7.1250 -0.0000 -0.0000 17.0723 -13.7589 13.1303
3.1268 17.6784 0.5666 -68.5771 88.6036 -69.6379 0.0000 0.0000 0.0000 -14.0823 1.7525 2.3552 0.2624 3.2956 9.1029 0.4087 -3.3459 -11.3923 0.1314 -2.3366 -6.4369 0.0000 0.0000 0.0000 20.8654 -0.1597 1.8016 -0.4914 -4.4947 12.4727 -0.6848 4.0536 -14.7863 -0.1238 2.2686 -6.2486 3.6806 -0.4487 5.3649 -1.2272 -0.3899 -1.5084 -3.3071 -0.3155 -4.6121 -4.6529 -5.5109 -3.5822 9.3587 -7.5767 4.6244 3.6507 -3.5835 2.7598 -0.0000 0.0000 0.0000 -87.2204 1.4593 5.1075 8.3323 -14.0900 -1.0315 -0.0000 0.0000 -17.6959 13.6385 10.5701 2.5485 -7.1250 0.0000 -0.0000 -11.8130 40.5664 1.3122 -0.0000 0.0000 0.0000 91.3920 -4.5104 4.5967 -10.6685 17.7784 -1.6733 0.0000 0.0000 26.5281 -2.1437 16.6348 -0.6139 7.1250 -0.0000 -0.0000 16.9649 -13.8236 13.0151
3.1276 17.6780 0.5647 -68.5256 88.6383 -69.5800 0.0000 0.0000 0.0000 -14.1245 1.7473 2.3696 0.2606 3.2840 9.0704 0.4074 -3.3479 -11.3741 0.1219 -2.2511 -6.2001 0.0000 0.0000 0.0000 20.8178 -0.1626 1.7926 -0.4919 -4.4969 12.4790 -0.6825 4.0520 -14.7612 -0.1631 2.6020 -7.1725 3.6578 -0.4562 5.3436 -1.2328 -0.4025 -1.5071 -3.2989 -0.3209 -4.5994 -4.6003 -5.5103 -3.6036 9.3121 -7.5781 4.6611 3.6236 -3.5832 2.7709 -0.0000 0.0000 0.0000 -87.1406 1.4678 5.5082 8.3314 -14.0886 -1.0313 -0.0000 0.0000 -17.7119 13.5022 10.4306 2.4892 -7.1250 0.0000 -0.0000 -11.8999 40.4148 1.3674 -0.0000 0.0000 0.0000 91.4606 -4.4912 5.0124 -10.6722 17.7841 -1.6744 0.0000 0.0000 26.3773 -2.4993 16.6666 -0.7172 7.1250 -0.0000 -0.0000 16.7336 -13.7777 12.8378
3.1276 17.6775 0.5638 -69.2832 88.6117 -70.3371 0.0000 0.0000 0.0000 -14.0963 1.7386 2.3681 0.2603 3.2821 9.0651 0.4071 -3.3169 -11.3709 0.1349 -2.3672 -6.5217 0.0000 0.0000 0.0000 20.8507 -0.1551 1.7954 -0.4919 -4.4969 12.4791 -0.6805 4.0043 -14.7424 -0.1934 2.8323 -7.8123 3.6963 -0.4669 5.3555 -1.2174 -0.4129 -1.5198 -3.3035 -0.3276 -4.6206 -4.5963 -5.5072 -3.5907 9.2997 -7.5765 4.7027 3.6189 -3.5821 2.7816 0.0000 0.0000 0.0000 -87.0897 1.5403 6.0688 8.4004 -14.1999 -1.0482 -0.0000 0.0000 -17.9904 13.4974 10.5141 2.5080 -7.1250 0.0000 -0.0000 -11.9224 40.4981 1.3452 0.0000 0.0000 0.0000 91.5365 -4.4437 5.1301 -10.6551 17.7576 -1.6692 0.0000 0.0000 26.4627 -2.7591 16.7932 -0.7977 7.1250 -0.0000 -0.0000 16.5584 -13.6447 12.7395
3.1279 17.6775 0.5629 -70.0141 88.5849 -71.0577 0.0000 0.0000 0.0000 -14.0627 1.7214 2.3417 0.2621 3.2933 9.0965 0.4085 -3.3162 -11.3908 0.1399 -2.4106 -6.6419 0.0000 0.0000 0.0000 20.8793 -0.1796 1.7868 -0.4905 -4.4904 12.4606 -0.6789 4.0151 -14.7231 -0.1935 2.8325 -7.8128 3.7117 -0.4856 5.3311 -1.1927 -0.4365 -1.5230 -3.2843 -0.3392 -4.6121 -4.6011 -5.5048 -3.6002 9.2876 -7.5758 4.7573 3.6154 -3.5809 2.8014 0.0000 -0.0000 0.0000 -87.0682 1.5746 6.5962 8.4565 -14.2902 -1.0620 -0.0000 0.0000 -18.2294 13.5286 10.5856 2.5309 -7.1250 0.0000 -0.0000 -11.9111 40.5724 1.3217 0.0000 -0.0000 0.0000 91.5927 -4.4228 5.4749 -10.6855 17.8045 -1.6785 0.0000 0.0000 26.3484 -2.8572 16.7995 -0.8264 7.1250 -0.0000 -0.0000 16.4947 -13.6341 12.6899
3.1286 17.6772 0.5606 -70.8850 88.5584 -71.9347 0.0000 0.0000 0.0000 -14.0331 1.7107 2.3493 0.2619 3.2922 9.0934 0.4078 -3.2917 -11.3823 0.1388 -2.4012 -6.6157 0.0000 0.0000 0.0000 20.9082 -0.2123 1.7875 -0.4908 -4.4919 12.4649 -0.6790 3.9824 -14.7273 -0.2028 2.8998 -7.9999 3.7503 -0.4924 5.3187 -1.1644 -0.4423 -1.5094 -3.2761 -0.3422 -4.5915 -4.6277 -5.5110 -3.6134 9.2799 -7.5828 4.7630 3.6171 -3.5849 2.8073 0.0000 -0.0000 0.0000 -87.0603 1.5119 6.9799 8.4398 -14.2633 -1.0578 -0.0000 0.0000 -18.3729 13.6522 10.5301 2.5416 -7.1250 0.0000 -0.0000 -11.7924 40.5273 1.3214 0.0000 -0.0000 0.0000 91.6136 -4.4429 5.9607 -10.7627 17.9236 -1.7022 0.0000 0.0000 26.0498 -2.8389 16.7507 -0.8188 7.1250 -0.0000 -0.0000 16.5094 -13.6817 12.6848
